<svg xmlns="http://www.w3.org/2000/svg" viewBox="0 0 882.42 461.23"><g id="Map-1" transform="translate(0,0) scale(1)"><rect class="Level1_background__DMbgb" width="882.42" height="461.23"></rect><g id="Building"><polygon id="Floor" class="Level1_cls2__rlXPz" points="711.73 331.68 711.73 266.56 867.14 266.56 867.14 38.75 755.22 38.75 755.22 12.77 676.94 12.77 676.94 38.75 633.77 38.75 633.77 264 622.84 264 622.84 331.12 711.73 331.68"></polygon><rect id="Hatchs" class="Level1_cls8__ENpoy" x="836.17" y="62.89" width="2.96" height="179.32"></rect><g id="SolidWall"><polygon class="Level1_cls13__aaFyU" points="643.82 41.37 643.82 46.79 648.61 46.79 648.61 41.37 693.68 41.37 693.68 46.79 698.52 46.79 698.52 38.75 678.8 38.75 678.8 12.84 675.91 12.84 675.91 38.75 633.77 38.75 633.77 264 622.84 264 622.84 333.21 711.73 333.21 711.73 330 626.52 330 626.52 266.56 636.75 266.56 636.75 242.45 642.33 242.45 642.33 233.95 636.75 233.95 636.75 227.86 642.33 227.86 642.33 219.18 636.75 219.18 636.75 165.87 642.33 165.87 642.33 157.08 636.75 157.08 636.75 151.08 642.33 151.08 642.33 142.64 636.75 142.64 636.75 106.95 642.33 106.95 642.33 98.58 636.75 98.58 636.75 41.37 643.82 41.37"></polygon><rect class="Level1_cls13__aaFyU" x="692.09" y="98.58" width="8.16" height="8.37"></rect><rect class="Level1_cls13__aaFyU" x="692.09" y="178.49" width="8.16" height="8.16"></rect><rect class="Level1_cls13__aaFyU" x="741.95" y="178.49" width="8.16" height="8.16"></rect><rect class="Level1_cls13__aaFyU" x="811.72" y="178.49" width="8.16" height="8.16"></rect><rect class="Level1_cls13__aaFyU" x="858.98" y="98.58" width="8.16" height="8.37"></rect><rect class="Level1_cls13__aaFyU" x="858.98" y="178.49" width="8.16" height="8.16"></rect><polygon class="Level1_cls13__aaFyU" points="643.59 266.56 643.59 258.23 648.56 258.23 648.56 263.86 693.45 263.86 693.45 258.23 698.52 258.23 698.52 263.86 716.84 263.86 716.84 266.56 711.87 266.56 711.87 280.09 709.45 280.09 709.45 266.56 643.59 266.56"></polygon><rect class="Level1_cls13__aaFyU" x="724.8" y="263.86" width="7.3" height="2.7"></rect><polygon class="Level1_cls13__aaFyU" points="813.07 258.27 813.07 263.86 786.3 263.86 786.3 266.56 818.41 266.56 818.41 264.35 818.41 263.86 818.41 258.27 813.07 258.27"></polygon><polygon class="Level1_cls13__aaFyU" points="748.78 263.86 748.78 258.27 743.44 258.27 743.44 263.86 741.96 263.86 741.96 266.56 753.59 266.56 753.59 263.86 748.78 263.86"></polygon><polygon class="Level1_cls13__aaFyU" points="743.45 46.79 743.45 38.75 818.24 38.75 818.24 46.75 816.75 46.75 816.75 104.56 810.8 104.56 810.8 101.54 814.66 101.54 814.66 78.79 767.91 78.79 767.91 76.37 814.66 76.37 814.66 46.75 813.17 46.75 813.17 42.19 748.47 42.19 748.47 46.79 743.45 46.79"></polygon><polygon class="Level1_cls13__aaFyU" points="801.45 101.54 750.12 101.54 750.12 98.58 741.95 98.58 741.95 106.95 750.12 106.95 750.12 104.56 801.45 104.56 801.45 101.54"></polygon><rect class="Level1_cls13__aaFyU" x="864.19" y="38.75" width="2.95" height="5.6"></rect><rect class="Level1_cls13__aaFyU" x="864.19" y="260.9" width="2.95" height="5.66"></rect><rect class="Level1_cls4__y-69H" x="669.73" y="336.63" width="39.93" height="87.85"></rect><rect class="Level1_cls4__y-69H" x="667.65" y="333.21" width="44.08" height="93.26"></rect><g><circle class="Level1_cls4__y-69H" cx="689.69" cy="358.42" r="11.16"></circle><circle class="Level1_cls4__y-69H" cx="689.69" cy="402.69" r="11.16"></circle></g></g><g id="MoveableWall"><g><polyline class="Level1_cls10__b96Ca" points="747.25 259.28 747.25 260.78 744.61 260.78 744.61 259.28"></polyline><line class="Level1_cls11__r2om+" x1="744.61" y1="256.82" x2="744.61" y2="105.28"></line><polyline class="Level1_cls10__b96Ca" points="744.61 105.28 744.61 103.78 747.25 103.78 747.25 105.28"></polyline><line class="Level1_cls11__r2om+" x1="747.25" y1="107.74" x2="747.25" y2="259.28"></line></g><g><polyline class="Level1_cls10__b96Ca" points="697.51 259.28 697.51 260.78 694.87 260.78 694.87 259.28"></polyline><line class="Level1_cls6__xy+yS" x1="694.87" y1="256.76" x2="694.87" y2="46.24"></line><polyline class="Level1_cls10__b96Ca" points="694.87 46.24 694.87 44.74 697.51 44.74 697.51 46.24"></polyline><line class="Level1_cls6__xy+yS" x1="697.51" y1="48.76" x2="697.51" y2="259.28"></line></g><g><polyline class="Level1_cls10__b96Ca" points="636.37 183.9 634.87 183.9 634.87 181.25 636.37 181.25"></polyline><line class="Level1_cls1__Vk+mh" x1="638.89" y1="181.25" x2="860.37" y2="181.25"></line><polyline class="Level1_cls10__b96Ca" points="860.37 181.25 861.87 181.25 861.87 183.9 860.37 183.9"></polyline><line class="Level1_cls1__Vk+mh" x1="857.86" y1="183.9" x2="636.37" y2="183.9"></line></g><g><polyline class="Level1_cls10__b96Ca" points="636.37 104.09 634.87 104.09 634.87 101.45 636.37 101.45"></polyline><line class="Level1_cls1__Vk+mh" x1="638.89" y1="101.45" x2="860.37" y2="101.45"></line><polyline class="Level1_cls10__b96Ca" points="860.37 101.45 861.87 101.45 861.87 104.09 860.37 104.09"></polyline><line class="Level1_cls1__Vk+mh" x1="857.86" y1="104.09" x2="636.37" y2="104.09"></line></g><g><polyline class="Level1_cls10__b96Ca" points="817.13 259.28 817.13 260.78 814.48 260.78 814.48 259.28"></polyline><line class="Level1_cls3__3Bytf" x1="814.48" y1="256.8" x2="814.48" y2="104.06"></line><polyline class="Level1_cls10__b96Ca" points="814.48 104.06 814.48 102.56 817.13 102.56 817.13 104.06"></polyline><line class="Level1_cls3__3Bytf" x1="817.13" y1="106.54" x2="817.13" y2="259.28"></line></g></g><g id="Wall"><polygon class="Level1_cls5__FOJtS" points="867.14 38.75 829.52 38.75 829.52 40.89 865.03 40.89 865.03 264.19 817.91 264.19 817.91 266.56 867.14 266.56 867.14 38.75"></polygon><polygon class="Level1_cls5__FOJtS" points="698.19 38.75 718.72 38.75 718.72 36.47 720.1 36.47 720.1 45.37 722.29 45.37 722.29 46.79 718.72 46.79 718.72 40.56 698.19 40.56 698.19 38.75"></polygon><polygon class="Level1_cls5__FOJtS" points="718.72 12.77 718.72 14.06 718.72 15.21 718.72 16.82 720.1 16.82 720.1 15.21 754.1 15.21 754.1 38.79 755.35 38.79 755.35 12.77 718.72 12.77"></polygon><line class="Level1_cls5__FOJtS" x1="813.26" y1="46.56" x2="813.26" y2="76.51"></line><polygon class="Level1_cls5__FOJtS" points="801.4 64.43 767.91 64.43 767.91 63.25 800.25 63.25 800.25 54.32 769.06 54.32 769.06 55.33 767.91 55.33 767.91 49.99 769.06 49.99 769.06 53.02 813.26 53.02 813.26 54.32 801.4 54.32 801.4 64.43"></polygon><rect class="Level1_cls5__FOJtS" x="767.91" y="77.26" width="1.12" height="5.39"></rect><rect class="Level1_cls5__FOJtS" x="767.91" y="94.57" width="1.12" height="8.26"></rect><rect class="Level1_cls5__FOJtS" x="765.91" y="76.37" width="2" height="2.42" transform="translate(1533.83 155.17) rotate(180)"></rect><rect class="Level1_cls5__FOJtS" x="795.92" y="78.47" width="1.81" height="23.67"></rect></g><g id="ClosedSection"><path class="Level1_cls18__e+fuR" d="m692.47,181.25h-56.19v2.64h56.19v-2.64Z"></path><path class="Level1_cls18__e+fuR" d="m721.03,101.45h-80.79v2.64h80.79v-2.64Z"></path><path class="Level1_cls18__e+fuR" d="m694.85,83.93v49.23h2.64v-49.23h-2.64Z"></path><path class="Level1_cls18__e+fuR" d="m694.85,180.14v-28h2.64v28h-2.64Z"></path><path class="Level1_cls18__e+fuR" d="m745.1,101.45h-5.02v2.64h5.02v-2.64Z"></path><path class="Level1_cls18__e+fuR" d="m694.85,65.26v-20.37h2.64v20.37h-2.64Z"></path></g><g id="Machines"><rect class="Level1_cls9__colwe" x="844.52" y="190.52" width="12.7" height="55.9"></rect><rect class="Level1_cls9__colwe" x="844.52" y="114.71" width="12.7" height="55.9"></rect><rect class="Level1_cls9__colwe" x="844.52" y="48.89" width="12.7" height="55.9"></rect><g><rect class="Level1_cls9__colwe" x="760.36" y="122.12" width="60.64" height="48.48"></rect><rect class="Level1_cls9__colwe" x="760.36" y="146.75" width="4.73" height="23.86"></rect><rect class="Level1_cls9__colwe" x="760.36" y="122.12" width="14.88" height="6.69"></rect><rect class="Level1_cls9__colwe" x="760.36" y="128.82" width="14.88" height="7.93"></rect><rect class="Level1_cls9__colwe" x="760.36" y="136.75" width="14.88" height="6.47"></rect><rect class="Level1_cls9__colwe" x="775.24" y="124.92" width="17.93" height="22.37" transform="translate(1568.42 272.2) rotate(180)"></rect><rect class="Level1_cls9__colwe" x="765.1" y="152.94" width="34.18" height="17.67" transform="translate(1564.37 323.54) rotate(180)"></rect><rect class="Level1_cls9__colwe" x="800.36" y="122.12" width="20.65" height="48.48"></rect></g><g><rect class="Level1_cls9__colwe" x="664.59" y="253.75" width="27.56" height="9.49"></rect><rect class="Level1_cls9__colwe" x="656.79" y="253.75" width="7.79" height="9.49" transform="translate(1321.38 516.98) rotate(180)"></rect><rect class="Level1_cls9__colwe" x="649.3" y="253.75" width="7.49" height="9.49"></rect><rect class="Level1_cls9__colwe" x="682.03" y="209.93" width="11.16" height="8.93"></rect><rect class="Level1_cls9__colwe" x="670.52" y="209.93" width="11.51" height="8.93"></rect><rect class="Level1_cls9__colwe" x="659.08" y="209.93" width="11.44" height="8.93" transform="translate(1329.61 428.79) rotate(180)"></rect><rect class="Level1_cls9__colwe" x="647.72" y="209.93" width="11.36" height="8.93"></rect><rect class="Level1_cls9__colwe" x="648.36" y="201.16" width="44.84" height="8.77"></rect><rect class="Level1_cls9__colwe" x="679.38" y="231.84" width="9.28" height="10.05"></rect><rect class="Level1_cls9__colwe" x="658.6" y="231.84" width="18.81" height="10.05" transform="translate(1336.02 473.72) rotate(180)"></rect><rect class="Level1_cls9__colwe" x="647.72" y="235.96" width="9.04" height="5.93" transform="translate(1304.49 477.84) rotate(180)"></rect><rect class="Level1_cls9__colwe" x="647.72" y="184.05" width="11.86" height="6.35" transform="translate(1307.3 374.45) rotate(180)"></rect><rect class="Level1_cls9__colwe" x="661.68" y="184.05" width="5" height="6.93"></rect><rect class="Level1_cls9__colwe" x="683.86" y="184.05" width="7.81" height="5.13"></rect></g><g><rect class="Level1_cls9__colwe" x="698.08" y="168.56" width="8.72" height="4.67"></rect><path class="Level1_cls9__colwe" d="m699.15,173.23h6.56c0,.92-.75,1.66-1.66,1.66h-3.24c-.92,0-1.66-.75-1.66-1.66h0Z"></path><rect class="Level1_cls9__colwe" x="699.15" y="165.2" width="6.74" height="3.36"></rect><rect class="Level1_cls9__colwe" x="698.74" y="158.31" width="8.23" height="6.89"></rect><path class="Level1_cls9__colwe" d="m701.38,156.22h2.25c1.16,0,2.09.94,2.09,2.09h-6.43c0-1.16.94-2.09,2.09-2.09Z"></path></g><rect id="elev" class="Level1_cls9__colwe" x="769.73" y="80.72" width="21.7" height="14.86"></rect></g><g id="DOORS"><path class="Level1_cls19__SZD6e" d="m741.81,277.05c.2,0,.35-.16.35-.35v-9.63c0-.2-.16-.35-.35-.35h-.1c-.2,0-.35.16-.35.35v9.26c-4.9-.3-8.72-4.33-8.72-9.26,0-.2-.16-.35-.35-.35s-.35.16-.35.35c0,5.37,4.21,9.76,9.57,9.99.04,0,.08,0,.12-.02.03,0,.06.02.09.02h.1-.01Z"></path><path class="Level1_cls19__SZD6e" d="m742.06,36.37h-.2s-.05,0-.08.02c-4.39.25-7.96,3.29-9.06,7.35-1.11-4.11-4.76-7.18-9.22-7.37-.03,0-.05.02-.08.03-.04-.02-.09-.03-.14-.03h-.2c-.2,0-.35.16-.35.35v9.45c0,.2.16.35.35.35h.2c.2,0,.35-.16.35-.35v-9.08c4.91.29,8.73,4.33,8.73,9.26,0,.2.16.35.35.35s.35-.16.35-.35c0-4.83,3.67-8.8,8.42-9.23v9.05c0,.2.16.35.35.35h.2c.2,0,.35-.16.35-.35v-9.45c0-.2-.16-.35-.35-.35h.03Z"></path><path class="Level1_cls19__SZD6e" d="m708.88,17.12v.2s0,.05.02.08c.25,4.39,3.29,7.96,7.35,9.06-4.11,1.11-7.18,4.76-7.37,9.22,0,.03.02.05.03.08-.02.04-.03.09-.03.14v.2c0,.2.16.35.35.35h9.45c.2,0,.35-.16.35-.35v-.2c0-.2-.16-.35-.35-.35h-9.08c.29-4.91,4.33-8.73,9.26-8.73.2,0,.35-.16.35-.35s-.16-.35-.35-.35c-4.83,0-8.8-3.67-9.23-8.42h9.05c.2,0,.35-.16.35-.35v-.2c0-.2-.16-.35-.35-.35h-9.45c-.2,0-.35.16-.35.35v-.03Z"></path><path class="Level1_cls19__SZD6e" d="m739.59,92.8h-.2s-.05,0-.08.02c-4.39.25-7.96,3.29-9.06,7.35-1.11-4.11-4.76-7.18-9.22-7.37-.03,0-.05.02-.08.03-.04-.02-.09-.03-.14-.03h-.2c-.2,0-.35.16-.35.35v9.45c0,.2.16.35.35.35h.2c.2,0,.35-.16.35-.35v-9.08c4.91.29,8.73,4.33,8.73,9.26,0,.2.16.35.35.35s.35-.16.35-.35c0-4.83,3.67-8.8,8.42-9.23v9.05c0,.2.16.35.35.35h.2c.2,0,.35-.16.35-.35v-9.45c0-.2-.16-.35-.35-.35h.03Z"></path><path class="Level1_cls19__SZD6e" d="m705.73,151.94v-.2s0-.05-.02-.08c-.25-4.39-3.29-7.96-7.35-9.06,4.11-1.11,7.18-4.76,7.37-9.22,0-.03-.02-.05-.03-.08.02-.04.03-.09.03-.14v-.2c0-.2-.16-.35-.35-.35h-9.45c-.2,0-.35.16-.35.35v.2c0,.2.16.35.35.35h9.08c-.29,4.91-4.33,8.73-9.26,8.73-.2,0-.35.16-.35.35s.16.35.35.35c4.83,0,8.8,3.67,9.23,8.42h-9.05c-.2,0-.35.16-.35.35v.2c0,.2.16.35.35.35h9.45c.2,0,.35-.16.35-.35v.03Z"></path><path class="Level1_cls19__SZD6e" d="m705.8,84.04v-.2s0-.05-.02-.08c-.25-4.39-3.29-7.96-7.35-9.06,4.11-1.11,7.18-4.76,7.37-9.22,0-.03-.02-.05-.03-.08.02-.04.03-.09.03-.14v-.2c0-.2-.16-.35-.35-.35h-9.45c-.2,0-.35.16-.35.35v.2c0,.2.16.35.35.35h9.08c-.29,4.91-4.33,8.73-9.26,8.73-.2,0-.35.16-.35.35s.16.35.35.35c4.83,0,8.8,3.67,9.23,8.42h-9.05c-.2,0-.35.16-.35.35v.2c0,.2.16.35.35.35h9.45c.2,0,.35-.16.35-.35v.03Z"></path><path class="Level1_cls19__SZD6e" d="m801.1,113.05c-.2,0-.35-.16-.35-.35v-9.63c0-.2.16-.35.35-.35h.1c.2,0,.35.16.35.35v9.26c4.9-.3,8.72-4.33,8.72-9.26,0-.2.16-.35.35-.35s.35.16.35.35c0,5.37-4.21,9.76-9.57,9.99-.04,0-.08,0-.12-.02-.03,0-.06.02-.09.02h-.1.01Z"></path></g><g id="Stairs"><polygon class="Level1_cls14__Ea7tj" points="768.82 64.47 768.82 76.4 812.8 76.4 812.8 42.23 770.52 42.23 770.52 52.93 801.49 52.93 801.49 64.47 768.82 64.47"></polygon><line class="Level1_cls14__Ea7tj" x1="771.82" y1="64.47" x2="771.82" y2="76.4"></line><line class="Level1_cls14__Ea7tj" x1="795.86" y1="64.47" x2="795.86" y2="76.4"></line><line class="Level1_cls14__Ea7tj" x1="774.83" y1="64.47" x2="774.83" y2="76.4"></line><line class="Level1_cls14__Ea7tj" x1="777.83" y1="64.47" x2="777.83" y2="76.4"></line><line class="Level1_cls14__Ea7tj" x1="786.85" y1="64.47" x2="786.85" y2="76.4"></line><line class="Level1_cls14__Ea7tj" x1="780.84" y1="64.47" x2="780.84" y2="76.4"></line><line class="Level1_cls14__Ea7tj" x1="783.84" y1="64.47" x2="783.84" y2="76.4"></line><line class="Level1_cls14__Ea7tj" x1="789.85" y1="64.47" x2="789.85" y2="76.4"></line><line class="Level1_cls14__Ea7tj" x1="792.85" y1="64.47" x2="792.85" y2="76.4"></line><line class="Level1_cls14__Ea7tj" x1="798.86" y1="64.47" x2="798.86" y2="76.4"></line><line class="Level1_cls14__Ea7tj" x1="801.87" y1="64.47" x2="801.87" y2="76.4"></line><line class="Level1_cls14__Ea7tj" x1="773.52" y1="42.23" x2="773.52" y2="52.93"></line><line class="Level1_cls14__Ea7tj" x1="797.56" y1="42.23" x2="797.56" y2="52.93"></line><line class="Level1_cls14__Ea7tj" x1="776.53" y1="42.23" x2="776.53" y2="52.93"></line><line class="Level1_cls14__Ea7tj" x1="779.53" y1="42.23" x2="779.53" y2="52.93"></line><line class="Level1_cls14__Ea7tj" x1="788.54" y1="42.23" x2="788.54" y2="52.93"></line><line class="Level1_cls14__Ea7tj" x1="782.53" y1="42.23" x2="782.53" y2="52.93"></line><line class="Level1_cls14__Ea7tj" x1="785.54" y1="42.23" x2="785.54" y2="52.93"></line><line class="Level1_cls14__Ea7tj" x1="791.55" y1="42.23" x2="791.55" y2="52.93"></line><line class="Level1_cls14__Ea7tj" x1="794.55" y1="42.23" x2="794.55" y2="52.93"></line><line class="Level1_cls14__Ea7tj" x1="800.56" y1="42.23" x2="800.56" y2="52.93"></line><line class="Level1_cls14__Ea7tj" x1="812.98" y1="64.84" x2="801.49" y2="64.84"></line><line class="Level1_cls14__Ea7tj" x1="812.98" y1="61.86" x2="801.49" y2="61.86"></line><line class="Level1_cls14__Ea7tj" x1="812.98" y1="58.89" x2="801.49" y2="58.89"></line><line class="Level1_cls14__Ea7tj" x1="812.98" y1="55.91" x2="801.49" y2="55.91"></line><line class="Level1_cls14__Ea7tj" x1="801.49" y1="52.93" x2="812.98" y2="52.93"></line><polygon class="Level1_cls12__fZPZg" points="772.47 43.75 772.47 51.42 769.91 47.58 772.47 43.75"></polygon><polyline class="Level1_cls4__y-69H" points="767.56 70.43 807.24 70.43 807.24 47.58 772.53 47.58"></polyline></g></g><g id="Dome"><line class="Level1_cls5__FOJtS" x1="170.53" y1="192.71" x2="150.53" y2="192.71"></line><line class="Level1_cls5__FOJtS" x1="160.53" y1="202.71" x2="160.53" y2="182.71"></line><path class="Level1_cls7__S47rJ" d="m621.96,266.24l-328.92.47c-37.56,67.25-119.54,95.7-190.68,66.18C24.94,300.76-11.78,211.96,20.35,134.54,52.48,57.12,141.28,20.4,218.7,52.53l5.44-13.94h407.81"></path></g><g id="text"><g id="t1"><g><text class="Level1_smallText__8m+6K" transform="translate(655.89 60.51)"><tspan x="0" y="0">Camera</tspan><tspan x="-7.91" y="7.2">Maintenance</tspan><tspan x="-8.13" y="14.4">Refrigeration</tspan><tspan x="-6.33" y="21.6">Compressor</tspan><tspan x="2.74" y="28.8">Room</tspan></text></g><g><text class="Level1_smallText__8m+6K" transform="translate(751.25 193.67)"><tspan x="0" y="0">Mechanical</tspan><tspan x=".12" y="7.2">Equipment</tspan><tspan x="10.39" y="14.4">Area</tspan></text></g><g><text class="Level1_smallText__8m+6K" transform="translate(721.67 68.98)"><tspan x="0" y="0">Entry</tspan><tspan x="1.28" y="7.2">Area</tspan></text></g><g><text class="Level1_smallText__8m+6K" transform="translate(658.91 128.19)"><tspan x="0" y="0">Utility</tspan><tspan x="1.03" y="7.2">Shop</tspan></text></g><g><text class="Level1_smallText__8m+6K" transform="translate(655.67 223.64)"><tspan x="0" y="0">Electrical</tspan><tspan x="-3.32" y="7.2">Equipment</tspan><tspan x="6.95" y="14.4">Area</tspan></text></g><g><text class="Level1_smallText__8m+6K" transform="translate(647.23 296.73)"><tspan x="0" y="0">Transformer</tspan><tspan x="3.52" y="7.2">Enclosure</tspan></text></g><g><text class="Level1_smallText__8m+6K" transform="translate(632.94 373.41)"><tspan x="0" y="0">Coatingg</tspan><tspan x="-5.28" y="7.2">Equipment</tspan><tspan x="5.17" y="14.4">Yard</tspan></text></g><g><text class="Level1_smallText__8m+6K" transform="translate(722.96 28.63)"><tspan x="0" y="0">Vestibule</tspan></text></g></g><g id="t2"><g><text class="Level1_text__A0tlo" transform="translate(852.29 228.04) rotate(-90)"><tspan x="0" y="0">Chiller 3</tspan></text><text class="Level1_text__A0tlo" transform="translate(852.29 228.04) rotate(-90)"><tspan x="0" y="0">Chiller 3</tspan></text></g><g><text class="Level1_text__A0tlo" transform="translate(792.82 211.19)"><tspan x="0" y="0">Process Air</tspan><tspan x="-2.1" y="4.8">Compressors</tspan></text></g><g><text class="Level1_text__A0tlo" transform="translate(774.92 59.94)"><tspan x="0" y="0">Wet Shaft</tspan></text></g><g><text class="Level1_text__A0tlo" transform="translate(771.05 162.47)"><tspan x="0" y="0">OSS Equip</tspan></text></g><g><text class="Level1_text__A0tlo" transform="translate(852.29 85.68) rotate(-90)"><tspan x="0" y="0">Chiller 1</tspan></text><text class="Level1_text__A0tlo" transform="translate(852.29 85.68) rotate(-90)"><tspan x="0" y="0">Chiller 1</tspan></text></g><g><text class="Level1_text__A0tlo" transform="translate(802.06 92.28)"><tspan x="0" y="0">Dry</tspan><tspan x="-1.69" y="4.8">Shaft</tspan></text></g><g><text class="Level1_text__A0tlo" transform="translate(774.48 87.54)"><tspan x="0" y="0">Elev. 1</tspan></text></g><g><text class="Level1_text__A0tlo" transform="translate(711.54 176.07) rotate(-90)"><tspan x="0" y="0">Service Air</tspan><tspan x="-1.61" y="4.8">Compressor</tspan></text></g><g><text class="Level1_text__A0tlo" transform="translate(852.29 152.06) rotate(-90)"><tspan x="0" y="0">Chiller 2</tspan></text><text class="Level1_text__A0tlo" transform="translate(852.29 152.06) rotate(-90)"><tspan x="0" y="0">Chiller 2</tspan></text></g></g></g></g><text fill="white" x="10" y="20">LEVEL 1</text></svg>